<svg width="179" height="67" viewBox="0 0 179 67" fill="none" xmlns="http://www.w3.org/2000/svg">
<path d="M83.0676 65.8186C72.1169 65.8186 64.4586 58.0857 64.4586 47.2025C64.4586 36.1761 72.6895 28.0137 83.9265 28.0137C94.8771 28.0137 102.535 35.7465 102.535 46.7729C102.535 57.7277 94.233 65.8186 83.0676 65.8186ZM84.5706 61.9522C91.37 61.9522 95.5929 56.4389 95.5929 49.2789C95.5929 40.2573 90.2249 31.9517 82.4234 31.9517C75.624 31.9517 71.4012 37.3933 71.4012 44.6249C71.4012 53.5749 76.7691 61.9522 84.5706 61.9522Z" fill="white"/>
<path d="M138.081 55.3619C138.875 55.3619 139.524 56.083 139.524 57.0205C139.524 57.4532 139.308 58.0301 138.875 58.7513C136.204 62.5734 129.924 65.8186 123.645 65.8186C113.828 65.8186 105.527 58.9676 105.527 46.9244C105.527 35.6023 113.828 27.7417 123.284 27.7417C132.162 27.7417 138.081 34.5205 138.081 41.5878C138.081 43.1023 137.648 43.535 136.565 43.8955L113.395 50.8186C115.344 56.732 120.036 60.9147 126.027 60.9147C130.285 60.9147 133.894 59.0397 136.204 56.4436C136.926 55.7224 137.503 55.3619 138.081 55.3619ZM122.345 31.9244C116.643 31.9244 112.312 36.8282 112.312 44.2561C112.312 45.2657 112.384 46.2032 112.529 47.1407L129.203 41.9484C130.502 41.5878 130.863 41.2273 130.863 40.0013C130.863 36.3955 127.47 31.9244 122.345 31.9244Z" fill="white"/>
<path d="M13.2145 53.3016C14.5055 54.9621 16.1848 55.7909 18.2505 55.7909C20.5458 55.7909 22.3255 54.8765 23.5881 53.0443C24.8498 51.2133 25.4818 48.5812 25.4818 45.1474C25.4818 41.2575 24.8641 37.1516 23.6308 32.8305C22.3967 28.5111 20.6614 24.6337 18.4227 21.2004C16.1266 24.8058 14.3615 28.8691 13.1282 33.3882C11.8933 37.9093 11.2773 42.0294 11.2773 45.7485C11.2773 49.1255 11.923 51.6424 13.2145 53.3016ZM18.8531 5.83651C24.1325 1.94623 29.929 0 36.2427 0C41.236 0 45.6398 1.1885 49.4572 3.56181C53.2734 5.9373 56.229 9.35554 58.3241 13.8187C60.4188 18.2825 61.4669 23.576 61.4669 29.6979C61.4669 39.9412 58.4535 51.7861 52.4275 65.2321H40.2034C43.4739 58.7668 45.9132 52.5589 47.5204 46.6066C49.1264 40.6564 49.9308 35.2772 49.9308 30.4703C49.9308 24.2903 48.6528 19.4275 46.1 15.8788C43.5451 12.3314 39.9153 10.5571 35.21 10.5571C31.8804 10.5571 28.8679 11.4453 26.1706 13.2183C29.6141 17.7967 32.2398 23.0029 34.0476 28.8395C35.8558 34.6761 36.7595 40.0552 36.7595 44.9757C36.7595 49.3252 35.9843 53.0869 34.4353 56.2629C32.8855 59.439 30.718 61.8718 27.9357 63.5582C25.1509 65.2459 21.9231 66.0905 18.2505 66.0905C14.7493 66.0905 11.6219 65.3315 8.86689 63.816C6.11227 62.3004 3.94559 60.0113 2.36727 56.9497C0.788531 53.8889 0 50.1836 0 45.8342C0 40.9137 0.975302 35.4781 2.92716 29.5262C4.87734 23.576 7.63196 18.2825 11.1915 13.6476C8.20651 11.5875 4.9636 10.5571 1.46316 10.5571V0C7.94855 0 13.7442 1.94623 18.8531 5.83651Z" fill="white"/>
<path d="M178.151 33.5957C176.123 33.5958 174.243 34.1934 172.513 35.3887C174.576 38.0781 176.172 41.15 177.303 44.6025C178.434 48.0559 179 51.2095 179 54.0645C179 56.5882 178.543 58.7387 177.628 60.5147C176.713 62.2911 175.457 63.6196 173.86 64.499C172.263 65.3784 170.45 65.8184 168.421 65.8184C166.292 65.8183 164.421 65.3288 162.807 64.3496C161.194 63.3711 159.938 61.9589 159.04 60.1162C158.142 58.2733 157.692 56.0902 157.692 53.5664C157.692 50.7115 158.217 47.5905 159.265 44.2041C160.313 40.8175 161.834 37.7962 163.83 35.1397C162.267 34.111 160.521 33.5958 158.591 33.5957C155.863 33.5957 153.759 34.6253 152.278 36.6836C150.799 38.7427 150.058 41.5646 150.058 45.1504C150.058 47.9394 150.524 51.0604 151.455 54.5127C152.387 57.9665 153.801 61.5689 155.696 65.3203H148.61C145.118 57.5185 143.371 50.6457 143.371 44.7022C143.371 41.8291 143.768 39.2701 144.562 37.0264C144.982 37.1269 145.43 37.1787 145.908 37.1787C147.287 37.1787 148.415 36.7594 149.291 35.9209C150.167 35.0829 150.605 33.9935 150.605 32.6523C150.605 31.5715 150.335 30.6512 149.796 29.8906C149.971 29.7688 150.15 29.6498 150.332 29.5361C152.545 28.159 155.098 27.4697 157.992 27.4697C161.652 27.4698 165.011 28.5993 168.071 30.8564C171.033 28.5992 174.392 27.4698 178.151 27.4697V33.5957ZM168.321 39.7715C167.024 41.7636 166.018 44.0134 165.303 46.5195C164.588 49.0267 164.23 51.409 164.229 53.666C164.229 55.6583 164.596 57.1857 165.327 58.2481C166.059 59.3111 167.091 59.8418 168.421 59.8418C169.618 59.8418 170.591 59.361 171.34 58.3975C172.088 57.4348 172.463 55.9748 172.463 54.0156C172.463 51.8576 172.106 49.4662 171.391 46.8428C170.676 44.2208 169.652 41.8634 168.321 39.7715ZM145.908 28.0137C147.287 28.0137 148.415 28.4424 149.291 29.2988C149.48 29.4838 149.648 29.6814 149.796 29.8906C147.842 31.2469 146.307 33.1121 145.192 35.4883C144.96 35.9834 144.75 36.4961 144.562 37.0264C143.771 36.8367 143.083 36.4688 142.498 35.9209C141.603 35.0829 141.156 33.9934 141.156 32.6523C141.156 31.2743 141.603 30.1562 142.498 29.2988C143.393 28.4425 144.529 28.0137 145.908 28.0137Z" fill="white"/>
</svg>
